{
  "accessors": [
    {
      "bufferView": 2,
      "componentType": 5126,
      "count": 65532,
      "max": [
        1.6121089458465576,
        2.123878002166748,
        4.489339828491211
      ],
      "min": [
        -1.6638820171356201,
        -2.202584981918335,
        -2.653067111968994
      ],
      "type": "VEC3"
    },
    {
      "bufferView": 2,
      "byteOffset": 786384,
      "componentType": 5126,
      "count": 65532,
      "max": [
        0.9999912977218628,
        0.9999337196350098,
        0.9998672008514404
      ],
      "min": [
        -0.9999984502792358,
        -0.9999979734420776,
        -0.8638681769371033
      ],
      "type": "VEC3"
    },
    {
      "bufferView": 1,
      "componentType": 5126,
      "count": 65532,
      "max": [
        0.8255400061607361,
        0.6055409908294678
      ],
      "min": [
        0.0,
        0.0
      ],
      "type": "VEC2"
    },
    {
      "bufferView": 0,
      "componentType": 5125,
      "count": 356433,
      "type": "SCALAR"
    },
    {
      "bufferView": 2,
      "byteOffset": 1572768,
      "componentType": 5126,
      "count": 65532,
      "max": [
        1.610200047492981,
        2.130033016204834,
        4.489339828491211
      ],
      "min": [
        -2.046673059463501,
        -2.1892549991607666,
        -2.652488946914673
      ],
      "type": "VEC3"
    },
    {
      "bufferView": 2,
      "byteOffset": 2359152,
      "componentType": 5126,
      "count": 65532,
      "max": [
        0.9999880790710449,
        0.9999337196350098,
        0.999455988407135
      ],
      "min": [
        -0.9999896287918091,
        -0.9999657869338989,
        -0.9358847737312317
      ],
      "type": "VEC3"
    },
    {
      "bufferView": 1,
      "byteOffset": 524256,
      "componentType": 5126,
      "count": 65532,
      "max": [
        0.0,
        0.0
      ],
      "min": [
        0.0,
        0.0
      ],
      "type": "VEC2"
    },
    {
      "bufferView": 0,
      "byteOffset": 1425732,
      "componentType": 5125,
      "count": 346860,
      "type": "SCALAR"
    },
    {
      "bufferView": 2,
      "byteOffset": 3145536,
      "componentType": 5126,
      "count": 33257,
      "max": [
        1.2184269428253174,
        1.9562530517578125,
        3.9600229263305664
      ],
      "min": [
        -2.0673940181732178,
        -1.945214033126831,
        -2.6530659198760986
      ],
      "type": "VEC3"
    },
    {
      "bufferView": 2,
      "byteOffset": 3544620,
      "componentType": 5126,
      "count": 33257,
      "max": [
        0.9999901056289673,
        0.9997076392173767,
        0.9981642961502075
      ],
      "min": [
        -0.9998905658721924,
        -0.9989883303642273,
        -0.9719722867012024
      ],
      "type": "VEC3"
    },
    {
      "bufferView": 1,
      "byteOffset": 1048512,
      "componentType": 5126,
      "count": 33257,
      "max": [
        0.0,
        0.0
      ],
      "min": [
        0.0,
        0.0
      ],
      "type": "VEC2"
    },
    {
      "bufferView": 0,
      "byteOffset": 2813172,
      "componentType": 5125,
      "count": 166839,
      "type": "SCALAR"
    }
  ],
  "asset": {
    "extras": {
      "author": "urbandave (https://sketchfab.com/urbandave)",
      "license": "CC-BY-4.0 (http://creativecommons.org/licenses/by/4.0/)",
      "source": "https://sketchfab.com/3d-models/the-thinker-le-penseur-62bdca8cb6fc443b931c2963b70ffc84",
      "title": "The Thinker (Le Penseur)"
    },
    "generator": "Sketchfab-15.62.0",
    "version": "2.0"
  },
  "bufferViews": [
    {
      "buffer": 0,
      "byteLength": 3480528,
      "name": "floatBufferViews",
      "target": 34963
    },
    {
      "buffer": 0,
      "byteLength": 1314568,
      "byteOffset": 3480528,
      "byteStride": 8,
      "name": "floatBufferViews",
      "target": 34962
    },
    {
      "buffer": 0,
      "byteLength": 3943704,
      "byteOffset": 4795096,
      "byteStride": 12,
      "name": "floatBufferViews",
      "target": 34962
    }
  ],
  "buffers": [
    {
      "byteLength": 8738800,
      "uri": "scene.bin"
    }
  ],
  "extensionsUsed": [
    "KHR_materials_specular"
  ],
  "materials": [
    {
      "doubleSided": true,
      "extensions": {
        "KHR_materials_specular": {
          "specularColorFactor": [
            1.0,
            1.0,
            1.0
          ],
          "specularFactor": 0.0
        }
      },
      "name": "concrete_floor_worn_001",
      "pbrMetallicRoughness": {
        "baseColorFactor": [
          0.6605005226346766,
          0.6605005226346766,
          0.6605005226346766,
          1.0
        ],
        "metallicFactor": 0.0,
        "roughnessFactor": 0.556973959248634
      }
    }
  ],
  "meshes": [
    {
      "name": "Object_0",
      "primitives": [
        {
          "attributes": {
            "NORMAL": 1,
            "POSITION": 0,
            "TEXCOORD_0": 2
          },
          "indices": 3,
          "material": 0,
          "mode": 4
        }
      ]
    },
    {
      "name": "Object_1",
      "primitives": [
        {
          "attributes": {
            "NORMAL": 5,
            "POSITION": 4,
            "TEXCOORD_0": 6
          },
          "indices": 7,
          "material": 0,
          "mode": 4
        }
      ]
    },
    {
      "name": "Object_2",
      "primitives": [
        {
          "attributes": {
            "NORMAL": 9,
            "POSITION": 8,
            "TEXCOORD_0": 10
          },
          "indices": 11,
          "material": 0,
          "mode": 4
        }
      ]
    }
  ],
  "nodes": [
    {
      "children": [
        1
      ],
      "matrix": [
        1.0,
        0.0,
        0.0,
        0.0,
        0.0,
        2.220446049250313e-16,
        -1.0,
        0.0,
        0.0,
        1.0,
        2.220446049250313e-16,
        0.0,
        0.0,
        0.0,
        0.0,
        1.0
      ],
      "name": "Sketchfab_model"
    },
    {
      "children": [
        2,
        3,
        4
      ],
      "name": "The Thinker Modern Stone Statue.obj.cleaner.materialmerger.gles"
    },
    {
      "mesh": 0,
      "name": "Object_2"
    },
    {
      "mesh": 1,
      "name": "Object_3"
    },
    {
      "mesh": 2,
      "name": "Object_4"
    }
  ],
  "scene": 0,
  "scenes": [
    {
      "name": "Sketchfab_Scene",
      "nodes": [
        0
      ]
    }
  ]
}
